<svg width="45" height="46" viewBox="0 0 45 46" fill="none" xmlns="http://www.w3.org/2000/svg">
<path d="M5.625 13.4167C5.625 12.3581 6.46447 11.5 7.5 11.5H37.5C38.5355 11.5 39.375 12.3581 39.375 13.4167C39.375 14.4752 38.5355 15.3333 37.5 15.3333H7.5C6.46447 15.3333 5.625 14.4752 5.625 13.4167Z" fill="white"/>
<path d="M5.625 23C5.625 21.9415 6.46447 21.0833 7.5 21.0833H37.5C38.5355 21.0833 39.375 21.9415 39.375 23C39.375 24.0585 38.5355 24.9167 37.5 24.9167H7.5C6.46447 24.9167 5.625 24.0585 5.625 23Z" fill="white"/>
<path d="M5.625 32.5833C5.625 31.5248 6.46447 30.6667 7.5 30.6667H37.5C38.5355 30.6667 39.375 31.5248 39.375 32.5833C39.375 33.6419 38.5355 34.5 37.5 34.5H7.5C6.46447 34.5 5.625 33.6419 5.625 32.5833Z" fill="white"/>
</svg>
