<svg width="26" height="26" viewBox="0 0 26 26" fill="none" xmlns="http://www.w3.org/2000/svg">
<path fill-rule="evenodd" clip-rule="evenodd" d="M19.5 2.6H6.5C4.34609 2.6 2.6 4.34609 2.6 6.5V19.5C2.6 21.6539 4.34609 23.4 6.5 23.4H19.5C21.6539 23.4 23.4 21.6539 23.4 19.5V6.5C23.4 4.34609 21.6539 2.6 19.5 2.6ZM6.5 0C2.91015 0 0 2.91015 0 6.5V19.5C0 23.0898 2.91015 26 6.5 26H19.5C23.0898 26 26 23.0898 26 19.5V6.5C26 2.91015 23.0898 0 19.5 0H6.5Z" fill="black"/>
<path fill-rule="evenodd" clip-rule="evenodd" d="M9.1 13C9.1 15.1539 10.8461 16.9 13 16.9C15.1539 16.9 16.9 15.1539 16.9 13C16.9 10.8461 15.1539 9.1 13 9.1C10.8461 9.1 9.1 10.8461 9.1 13ZM13 6.5C9.41015 6.5 6.5 9.41015 6.5 13C6.5 16.5899 9.41015 19.5 13 19.5C16.5899 19.5 19.5 16.5899 19.5 13C19.5 9.41015 16.5899 6.5 13 6.5Z" fill="black"/>
<path d="M20.8 5.2C20.8 5.91797 20.218 6.5 19.5 6.5C18.782 6.5 18.2 5.91797 18.2 5.2C18.2 4.48203 18.782 3.9 19.5 3.9C20.218 3.9 20.8 4.48203 20.8 5.2Z" fill="black"/>
</svg>
