<svg width="105" height="14" viewBox="0 0 105 14" fill="none" xmlns="http://www.w3.org/2000/svg">
<g clip-path="url(#clip0_690_492)">
<path d="M39.9131 1.20062C38.8109 0.587052 37.4939 0.269531 35.9972 0.269531H29.3773C29.3351 0.269531 29.2947 0.285694 29.2649 0.314461C29.235 0.343227 29.2183 0.38224 29.2183 0.422922V13.5793C29.2183 13.62 29.235 13.659 29.2649 13.6877C29.2947 13.7165 29.3351 13.7327 29.3773 13.7327H35.8986C37.0974 13.7532 38.2858 13.5152 39.3771 13.0363C40.4746 12.5361 41.3955 11.7361 42.0254 10.7354C42.7069 9.60833 43.0566 8.32331 43.0369 7.01874C43.0587 5.8629 42.8029 4.71787 42.2894 3.67328C41.7671 2.64132 40.9405 1.78111 39.9131 1.20062ZM34.168 4.48625H35.7172C36.0153 4.48231 36.313 4.51009 36.6048 4.56908C36.867 4.61543 37.1144 4.72051 37.3269 4.87587C37.5168 5.02713 37.6622 5.22392 37.7484 5.44648C37.9206 5.90097 38 6.3833 37.9822 6.86688C37.9843 7.16569 37.962 7.4642 37.9154 7.75962C37.8668 8.14601 37.727 8.5165 37.5066 8.84256C37.355 9.05349 37.1443 9.21842 36.899 9.31807C36.5451 9.45357 36.1662 9.51778 35.7856 9.50674H34.168V4.48625Z" fill="black"/>
<path d="M13.4655 0.269654H0.157346C0.115162 0.269654 0.0747055 0.285817 0.044877 0.314583C0.0150484 0.34335 -0.00170898 0.382363 -0.00170898 0.423045V4.42042C-0.00170898 4.4611 0.0150484 4.50011 0.044877 4.52888C0.0747055 4.55765 0.115162 4.57381 0.157346 4.57381H4.34208V13.5809C4.34208 13.6216 4.35883 13.6606 4.38866 13.6894C4.41849 13.7182 4.45895 13.7343 4.50113 13.7343H9.1344C9.17658 13.7343 9.21704 13.7182 9.24687 13.6894C9.27669 13.6606 9.29345 13.6216 9.29345 13.5809V4.57381H13.4718C13.514 4.57381 13.5545 4.55765 13.5843 4.52888C13.6141 4.50011 13.6309 4.4611 13.6309 4.42042V0.423045C13.6309 0.402375 13.6266 0.381914 13.6182 0.362893C13.6098 0.343871 13.5975 0.326682 13.5821 0.312355C13.5666 0.298028 13.5483 0.286859 13.5283 0.279522C13.5082 0.272184 13.4869 0.268827 13.4655 0.269654Z" fill="black"/>
<path d="M76.6135 0.269539H70.827C70.795 0.26963 70.7637 0.279051 70.7373 0.296568C70.7109 0.314085 70.6907 0.338884 70.6791 0.367711L68.1867 6.63067L65.8804 0.370778C65.8693 0.341132 65.849 0.315511 65.8222 0.297396C65.7955 0.279282 65.7636 0.269552 65.7309 0.269539H59.6534C59.6113 0.269539 59.5708 0.285702 59.541 0.314468C59.5111 0.343235 59.4944 0.382248 59.4944 0.42293V13.5793C59.4944 13.62 59.5111 13.659 59.541 13.6877C59.5708 13.7165 59.6113 13.7327 59.6534 13.7327H64.0974C64.1396 13.7327 64.1801 13.7165 64.2099 13.6877C64.2397 13.659 64.2565 13.62 64.2565 13.5793V8.48977L66.2733 13.633C66.2848 13.6618 66.3051 13.6866 66.3315 13.7041C66.3579 13.7216 66.3892 13.731 66.4212 13.7311H69.7614C69.7928 13.731 69.8234 13.7219 69.8495 13.705C69.8755 13.688 69.8958 13.664 69.9077 13.636L72.0518 8.50971V13.5793C72.0518 13.62 72.0685 13.659 72.0983 13.6877C72.1282 13.7165 72.1686 13.7327 72.2108 13.7327H76.615C76.6572 13.7327 76.6977 13.7165 76.7275 13.6877C76.7573 13.659 76.7741 13.62 76.7741 13.5793V0.42293C76.7741 0.402657 76.7699 0.382584 76.7618 0.363873C76.7537 0.345162 76.7419 0.328185 76.7269 0.313921C76.712 0.299657 76.6943 0.288391 76.6748 0.280774C76.6553 0.273156 76.6345 0.269336 76.6135 0.269539Z" fill="black"/>
<path d="M104.843 0.269539H91.5328C91.4907 0.269539 91.4502 0.285702 91.4204 0.314468C91.3905 0.343235 91.3738 0.382248 91.3738 0.42293V4.4203C91.3738 4.46098 91.3905 4.5 91.4204 4.52877C91.4502 4.55753 91.4907 4.57369 91.5328 4.57369H95.7128V13.5808C95.7128 13.6215 95.7295 13.6605 95.7594 13.6893C95.7892 13.718 95.8297 13.7342 95.8719 13.7342H100.505C100.547 13.7342 100.588 13.718 100.618 13.6893C100.647 13.6605 100.664 13.6215 100.664 13.5808V4.57369H104.844C104.886 4.57369 104.927 4.55753 104.957 4.52877C104.986 4.5 105.003 4.46098 105.003 4.4203V0.42293C105.003 0.402657 104.999 0.382584 104.991 0.363873C104.983 0.345162 104.971 0.328185 104.956 0.313921C104.941 0.299657 104.923 0.288391 104.904 0.280774C104.884 0.273156 104.864 0.269336 104.843 0.269539Z" fill="black"/>
<path d="M88.3755 0.366168C88.3637 0.337628 88.3433 0.313158 88.3169 0.295928C88.2906 0.278698 88.2594 0.269502 88.2276 0.269531H83.4082C83.3762 0.269623 83.3449 0.279043 83.3185 0.29656C83.2921 0.314077 83.2718 0.338876 83.2603 0.367704L78.1117 13.5241C78.1031 13.5471 78.1003 13.5718 78.1037 13.5961C78.107 13.6204 78.1163 13.6435 78.1308 13.6636C78.1452 13.6837 78.1645 13.7002 78.1869 13.7117C78.2093 13.7232 78.2342 13.7293 78.2596 13.7296H83.001C83.0339 13.7295 83.066 13.7195 83.0927 13.7011C83.1195 13.6827 83.1397 13.6568 83.1506 13.6268L83.9347 11.4517H87.593L88.3882 13.6284C88.3992 13.6578 88.4193 13.6832 88.4458 13.7013C88.4722 13.7194 88.5037 13.7293 88.5362 13.7296H93.4939C93.5193 13.7293 93.5442 13.7232 93.5666 13.7117C93.589 13.7002 93.6083 13.6837 93.6227 13.6636C93.6372 13.6432 93.6464 13.6197 93.6494 13.5951C93.6525 13.5706 93.6493 13.5457 93.6402 13.5225L88.3755 0.366168ZM86.4669 7.8179H85.0258L85.7432 5.84836L86.4669 7.8179Z" fill="black"/>
<path d="M25.3661 1.24408C24.1859 0.429574 22.7114 8.1471e-05 21.1018 8.1471e-05C20.3665 -0.00318517 19.6342 0.0917968 18.9259 0.28232C17.5264 0.657366 16.2957 1.46989 15.4267 2.59239C14.4915 3.80111 13.9952 5.32275 13.9952 6.99164C13.9906 7.83251 14.1249 8.66873 14.3929 9.46891C14.8295 10.8029 15.7029 11.9644 16.8821 12.7791C18.1234 13.6012 19.5993 14.0302 21.105 14.0062C21.8083 14.009 22.509 13.9219 23.1886 13.747C24.608 13.3875 25.8627 12.5823 26.7546 11.4584C27.7217 10.2313 28.2322 8.69735 28.2322 6.99778C28.2361 6.19558 28.1132 5.3975 27.868 4.63096C27.4418 3.26791 26.5627 2.07783 25.3661 1.24408ZM19.0039 6.99164C18.9847 6.38053 19.1041 5.77276 19.3538 5.21077C19.499 4.89456 19.7353 4.62518 20.0345 4.43461C20.3529 4.24726 20.7211 4.15393 21.0938 4.16618C21.4621 4.1548 21.826 4.24586 22.142 4.42848C22.4366 4.61152 22.6711 4.87169 22.818 5.17856C23.0799 5.74866 23.205 6.36843 23.1838 6.99164C23.2026 7.59864 23.0854 8.20241 22.8403 8.76178C22.6955 9.08623 22.457 9.36365 22.1531 9.56094C21.8356 9.75059 21.4671 9.84557 21.0938 9.83398C20.7416 9.84385 20.3935 9.75886 20.0886 9.58856C19.7851 9.40648 19.5418 9.14467 19.3872 8.83387C19.1169 8.25579 18.9884 7.62538 19.0118 6.99164H19.0039Z" fill="black"/>
<path d="M55.3669 1.24409C54.1867 0.42958 52.7123 8.73818e-05 51.1042 8.73818e-05C50.3689 -0.00329775 49.6366 0.0916864 48.9284 0.282326C47.5292 0.658011 46.2986 1.4704 45.4291 2.5924C44.4939 3.80112 43.9977 5.32275 43.9977 6.99165C43.9935 7.83237 44.1271 8.66845 44.3937 9.46891C44.8315 10.8023 45.7047 11.9635 46.8829 12.7791C48.1247 13.6015 49.6012 14.0304 51.1074 14.0062C51.8102 14.0089 52.5103 13.9217 53.1894 13.747C54.6088 13.3875 55.8635 12.5823 56.7554 11.4584C57.7225 10.2313 58.2346 8.69736 58.2346 6.99779C58.238 6.19551 58.1146 5.39743 57.8688 4.63096C57.4426 3.26792 56.5635 2.07784 55.3669 1.24409ZM49.0142 6.99165C48.9951 6.38054 49.1145 5.77276 49.3642 5.21078C49.5093 4.89499 49.7449 4.62573 50.0433 4.43462C50.3621 4.24697 50.731 4.15364 51.1042 4.16619C51.4725 4.15498 51.8363 4.24603 52.1524 4.42849C52.447 4.61116 52.681 4.87148 52.8268 5.17857C53.0892 5.74854 53.2148 6.36832 53.1942 6.99165C53.2132 7.59837 53.0971 8.20196 52.8538 8.76178C52.7086 9.08643 52.4695 9.36388 52.1651 9.56095C51.8482 9.75064 51.4802 9.84564 51.1074 9.83398C50.7547 9.84349 50.4062 9.75854 50.1006 9.58856C49.7972 9.40679 49.5543 9.14485 49.4007 8.83388C49.1261 8.25684 48.9938 7.62627 49.0142 6.99165Z" fill="black"/>
</g>
<defs>
<clipPath id="clip0_690_492">
<rect width="105" height="14" fill="white"/>
</clipPath>
</defs>
</svg>
